<svg xmlns="http://www.w3.org/2000/svg" viewBox="0 0 1351.3 577.96"><defs><style>.cls-1{fill:none;stroke:#000;stroke-miterlimit:10;stroke-width:2px;}.cls-2{fill:#9b6640;}.cls-3{fill:#84502c;}.cls-4{fill:#ec2227;}.cls-5{fill:#c82127;}.cls-6{fill:#74b57b;}.cls-7{fill:#2c9d5e;}</style></defs><g id="Livello_2" data-name="Livello 2"><g id="Livello_1-2" data-name="Livello 1"><path d="M0,525.46l2.29-8H19.57L23,515.16,61.56,380.71l-2.29-2.29H42.11l2.4-8h65.34l-2.4,8H88l-3.44,2.29L47.37,509.9v2.29H99.44c17.16,0,25.4-4.12,31.12-24.49l2.41-8.58h8L127.7,525.46Z"/><path d="M137.82,430.14v-6.86c8.59-4.35,22.2-13.73,25.63-26.78l-1.71-2.29H149.27v-23.8h24.94V386.2C174.21,410.69,151.78,423.28,137.82,430.14Z"/><path d="M225.29,418c22.31,0,35.47,14.88,35.47,36.85,0,33.3-27.92,72.89-65.45,72.89-22.66,0-35.7-15.33-35.7-37.3C159.61,456.58,187.53,418,225.29,418Zm-43.71,75.18c0,15.45,2.86,26.55,16.71,26.55,25.28,0,40.5-42.8,40.5-66.14,0-16-2.51-27.58-16.7-27.58C198.74,426,181.58,467.22,181.58,493.19Z"/><path d="M351.31,436.44h-9.38c-22.66,0-31.13,22.77-54.47,89H270.52L296,434.84l-2.29-2.29c-1.72,1.6-5.61,5.49-15.22,19.33h-8c9.84-15.44,19.23-26.54,25.86-31.58h13.28c5.72,4.47,5,14.31-.35,29.75l-1.83,5.27h3.43c7.1-18.54,19.11-36.16,32.16-36.73l14-.58,1.72,2.29Z"/><path d="M378.27,513.22c4.46-4.24,12.24-13.39,16.93-19.34h8c-4.92,7-18.19,24.49-27.12,31.58H365.91c-7.9-4.23-9.27-12.47-6-24.49l20.14-72.09h-16l-1.72-2.28,43-29.3h2.28l-6.4,23h18.08l-2.29,8.58h-18.2L376,510.93Z"/><path d="M548.24,436.78H528.56l2.29-8.58h17.28l3.43-2.29c15.33-31.35,27.35-55,48.63-56.3l24.49-1.49,1.72,2.29L619,386.55h-28.5c-10.52,0-14.41,5.37-15.67,13l-4.58,28.61h19.91l-2.29,8.58H567.69l-23.34,80.9c-8,27.69-29.52,56.87-55.84,58.36l-15.68.91-1.71-2.28,7.43-16.14h25.29c10.53,0,14.31-5.72,16.25-13.39Z"/><path d="M667.85,436.44h-9.38c-22.66,0-31.12,22.77-54.47,89H587.07l25.52-90.62-2.29-2.29c-1.72,1.6-5.61,5.49-15.22,19.33h-8c9.84-15.44,19.22-26.54,25.86-31.58H626.2c5.72,4.47,5,14.31-.34,29.75L624,455.32h3.43c7.1-18.54,19.11-36.16,32.15-36.73l14-.58,1.72,2.29Z"/><path d="M708.82,444.9l-14.19,49.89c-3.2,11.1-3.77,19.8,2.18,19.8,17.5,0,46.8-62.13,58.58-94.29h16.94l-25.52,90.63,2.29,2.29c1.72-1.6,6.06-6.07,15.67-19.34h8c-10.07,15.33-19.46,26.55-25.86,31.58H736.4c-7.32-4.12-9.27-11.67-3.09-29.41l9-25.86h-2.29c-8.58,19.57-24.38,57.56-53.32,57.56-14.88,0-17.28-12.13-11.56-31.81l17.73-61.1-2.28-2.29c-3.21,2.86-8.93,10.41-15.22,19.33h-8c6.75-10.52,17.62-25.05,25.4-31.58h14C711.34,424.31,712.25,432.89,708.82,444.9Z"/><path d="M806,513.22c4.46-4.24,12.24-13.39,16.93-19.34h8c-4.92,7-18.2,24.49-27.12,31.58H793.67c-7.89-4.23-9.27-12.47-5.95-24.49l20.14-72.09h-16l-1.72-2.28,43-29.3h2.29l-6.41,23h18.08l-2.29,8.58H826.63l-22.89,82.05Z"/><path d="M872.65,513.22c4.46-4.24,12.25-13.39,16.94-19.34h8c-4.92,7-18.2,24.49-27.12,31.58H860.29C852.4,521.23,851,513,854.35,501l20.13-72.09h-16l-1.72-2.28,43-29.3h2.29l-6.41,23h18.08l-2.29,8.58H893.25l-22.88,82.05Z"/><path d="M937.16,513.22a185.48,185.48,0,0,0,15.68-19.34h8c-6.75,10.53-17.74,24.94-25.86,31.58h-9.61c-7.9-4.23-9.84-12.47-6.3-24.49l19.34-66.13-2.29-2.29c-1.71,1.6-5.6,5.49-15.22,19.33h-8c9.84-15.44,19.22-26.54,25.86-31.58H950.9c6.29,5.15,8.58,12.25,3.2,29.41l-19.22,61.22Zm13.05-142.81h22.66v22.66H950.21Z"/><path d="M1066.89,440.33l-1.72,3.43-19.45,3L1042.17,433c-1.37-5.49-3.66-7.55-9-7.55-16.13,0-41.19,27-41.19,61.11,0,19.45,8.92,28.15,21.51,28.15,14.19,0,26.55-11.91,31.12-16.25h7.79c-6.64,7.32-25.41,29.29-51.27,29.29-17.16,0-30.43-10.53-30.43-34.33,0-39.13,35.47-75.41,70.25-75.41C1063.8,418,1065.86,434.84,1066.89,440.33Z"/><path d="M1132.15,418c22.31,0,35.48,14.88,35.48,36.85,0,33.3-27.93,72.89-65.46,72.89-22.65,0-35.7-15.33-35.7-37.3C1066.47,456.58,1094.39,418,1132.15,418Zm-43.71,75.18c0,15.45,2.86,26.55,16.71,26.55,25.29,0,40.51-42.8,40.51-66.14,0-16-2.52-27.58-16.71-27.58C1105.6,426,1088.44,467.22,1088.44,493.19Z"/><path d="M1176.23,501l32.61-121.4-2.28-2.29h-18.08l1.14-6.87h42.45c-4.23,14.19-33.41,112.94-39.7,140.52l2.29,2.29a187.11,187.11,0,0,0,15.67-19.34h8c-6.75,10.53-17.73,24.94-25.86,31.58h-10.07C1174.52,521.23,1172.92,513.22,1176.23,501Z"/><path d="M1292.58,495.94h-2.29c-7.55,13.27-23.68,31.81-41.53,31.81-12.13,0-22.66-7.09-22.66-28.84,0-34.55,33-80.9,64.54-80.9,12.24,0,16.93,6.76,19.34,10.3h2.28l2.52-8.12h16.14l-24.83,90.74,2.28,2.29a185.48,185.48,0,0,0,15.68-19.34h8c-6.75,10.53-17.74,24.94-25.86,31.58h-9.61c-7.9-4.23-8.7-12.24-5.38-24.49Zm-33.75,16.48c19.22,0,37.41-35.13,40.16-41l9.61-31.12c-.91-8.36-4.69-14.88-14.07-14.88-23,0-47.15,39.37-47.15,68.89C1247.38,507.15,1252.65,512.42,1258.83,512.42Z"/><line class="cls-1" y1="576.96" x2="419.45" y2="576.96"/><line class="cls-1" x1="574.69" y1="576.96" x2="1332.08" y2="576.96"/><path d="M798.61.34l.08-.34H721.87c-63,93.59-75.12,112.46-127.38,199.39h-3.81L543.64,0h-69l-3.12,13.35H498l4,3.81c-28.69,114.56-33.2,134-52.51,224L444,244.94H415.22l-3.11,13.35h90.54l3.11-13.35H473.55l-4-3.81c19.3-75.48,25.76-101.41,44.56-186.42h3.81l49,207.39h3.81C657.44,131,669.77,115.32,712.8,45.18h3.81l-46,196-5.52,3.81H632.53l-3.12,13.35h112.7c102.93,0,192.43-63.67,187.42-159.36C926.12,33.78,873.78,3.76,798.61.34ZM743,239.23H711.38l-.18-3.43L762,19.06h28.59c59.47,0,91.24,24.21,94.32,83.11C888.94,179.37,832.61,239.23,743,239.23Z"/><path class="cls-2" d="M475.57,441.64s-4.81-22.89,17.63-54.54l-10.58-2.19s-13.29,21.52-9.94,58.63Z"/><path class="cls-3" d="M486.61,385.74c-5.43,12.26-14.8,36.9-12.62,56.94l1.58-1s-4.81-22.89,17.63-54.54Z"/><path class="cls-4" d="M524.2,448.41c-12.93-25.94-50.94-11.47-50.94-11.47s-31.11-26.19-51.87-6-12.25,50-1.39,69.34,28.28,28.07,38.81,21.87c7.9,9.33,27.23,6.8,43.85-7.85S537.14,474.34,524.2,448.41Z"/><path class="cls-5" d="M458.81,522.18c7.9,9.33,27.23,6.8,43.85-7.85s34.48-40,21.54-65.92-50.94-11.47-50.94-11.47,50.9,1.16,43.29,32.74c-6.75,28-53.66,49.64-93.46,35.59C433.94,521.08,449.23,527.82,458.81,522.18Z"/><path class="cls-6" d="M516,404.47c-29.74-9.87-42.71,32.34-42.71,32.34C481.28,425,516,404.47,516,404.47Z"/><path class="cls-7" d="M516,404.47S481.28,425,473.33,436.81C509.83,431.8,516,404.47,516,404.47Z"/><line class="cls-1" x1="51.56" y1="339.35" x2="1351.3" y2="339.35"/></g></g></svg>